<?xml version="1.0" encoding="UTF-8"?>
<svg version="1.1" viewBox="0 0 1878 1056" xmlns="http://www.w3.org/2000/svg">
<path d="m544 98h27l17 3 16 5 15 8 11 9 9 10 8 13 6 16 3 17v23l-3 15-5 15-8 15-9 11-10 9-12 7-13 4-14 1-16-2-12-4-12-7-8-7-7-11-4-11-1-6v-11l3-12 5-10 9-10 9-6 9-4 11-2h13l10 3 6 4 1 6-3 5-5 3-2-1-5-10-4-2-8 1-8 6-8 16-3 17 1 17 4 13 5 7v2l12 6h15l10-6 8-8 8-13 6-14 5-17 2-11 1-11v-10l-2-18-5-16-7-13-10-11-11-7-14-5-12-2h-11l-18 3-18 5-23 10-18 11-16 12-14 12-10 10-7 8-13 16-12 17-12 20-8 14-11 24-11 28-8 25-6 24-5 28-3 28v34l3 27 5 21 6 17 9 17 7 9 9 10 13 9 15 7 8 2h20l12-3 16-8 11-7 13-11 14-14 12-16 11-18 10-21 7-19 4-15 5-28 8-30 5-16-5-1-25-11-26-11-13-4h-13l-9 4-6 5-5 8-4 13v20l4 12 4 5h4l2-4 2-9 5-2 4 3 1 3v9l-4 5-6 2h-15l-15-4-10-7-7-9-4-11v-18l5-12 6-8 9-8 11-5 13-3h17l20 4 25 10 26 11 16 4 7 1h23l16-4 6-5 4 1 2 5v8l-3 6-6 5-8 2h-21l-7 23-6 28-3 22-1 11v38l3 21 6 18 7 13 9 11 12 9 12 5 9 2h16l12-3 11-6 12-11 8-13 5-13 3-14 1-11v-9l-2-16-5-15-8-11-7-4-3-1h-13l-10 5-5 5-6 9-5 13-2 9v22l3 11 5-2 2-3 3 1v7l-4 3-11-1-9-4-7-7-5-11-2-12 1-13 5-14 8-11 8-7 14-7 15-3h17l16 4 12 7 9 8 9 14 5 14 2 16-1 14-4 16-6 12-10 13-11 10-14 8-11 5-17 4-8 1h-19l-17-3-16-6-14-8-13-12-8-10-8-15-5-15-3-16-2-22-9 19-11 18-10 13-11 12-13 13-13 10-16 9-15 6-18 4h-21l-18-4-17-7-15-10-12-11-8-9-9-14-8-16-8-24-4-19-2-17v-47l3-26 7-34 9-30 10-26 13-28 11-20 14-21 9-12 9-11 9-10 19-19 14-11 14-10 21-12 18-8 18-6 26-5z" fill="#F6B614"/>
<path d="m812 439h22l11 4 9 6 6 7 4 9 1 4v14l-4 12-8 11-10 7-11 3h-9l-10-3-5-5-3-5-1-9 3-9 4-6 8-4 7 1 1 4-6 5-4 11v8l1 5h9l6-4 6-9 5-12 1-5v-17l-5-10-8-5h-13l-8 4-10 9-10 13-16 29-20 41-15 33-20 45-15 33-11 23 10 2 20 7 27 13 27 12 21 7 17 3h20l10-4 8-6 6-7 8-16 3-14v-10l-3-10-4-4-2-1h-8l-5 3-3 6v11l3 6 4 4-1 3-2 1h-9l-6-4-4-6v-12l4-9 8-7 8-3h16l9 3 8 7 4 5 4 11v17l-4 12-7 10-4 5-10 7-11 5-11 3-7 1h-15l-17-2-16-4-19-7-28-13-19-9-22-8-11-3-2 6-7 11-11 12-10 6-8 3h-14l-11-4-6-5-3-6-1-7 3-9 5-6 8-5 12-4 13-2h15l17-35 24-54 15-33 16-34 12-23 13-22 9-12 10-10 10-6z" fill="#F6B614"/>
<path d="m732 299h16l12 3 10 5 10 9 7 8 6 12 2 7 1 15-2 12-5 12-8 11-9 8-14 7-7 2h-22l-15-5-11-8-7-7-7-11-4-12-1-6v-13l3-13 7-13 7-8 12-9 14-5z" fill="#F6B614"/>
<path d="m1143 299h15l12 3 12 6 12 11 7 11 4 10 1 4v21l-4 13-7 11-6 7-13 9-10 4-4 1h-22l-13-4-11-7-10-10-6-10-4-11-1-5v-17l3-11 6-12 10-11 14-9 9-3z" fill="#F6B614"/>
<path d="m948 241h2v149l3 11 4 9h-38l-15-4-9-5-10-9-5-6-5-10-3-11v-23l4-14 6-10 9-9 11-7 12-4 10-1-1-22-4-13-3-7z" fill="#F6B614"/>
<path d="m1373 231h2v119l8-7 7-10 11-23v-8l-1-3h34l-4 7-12 14-12 11-14 11-1 2 4 2 10 8 7 7 10 13 8 14 8 17 3 5h-34l1-4v-10l-4-16-8-16-9-11-4-2-7 6v33l2 9 5 11h-40l2-5 4-11v-129l-4-13-3-7z" fill="#F6B614"/>
<path d="m1067 231h3l1 163 5 13 1 3h-40l5-11 1-4v-132l-6-18 14-7z" fill="#F6B614"/>
<path d="m727 308 9 1 12 6 10 10 8 13 5 13 2 9v19l-4 11-4 6-9 5h-12l-10-5-10-9-8-11-7-16-3-15v-10l3-13 5-8 8-5z" fill="#F6B614"/>
<path d="m1138 308 9 1 10 5 10 9 7 10 6 13 4 16v14l-3 12-4 6-6 5-4 2h-12l-12-6-12-12-9-17-4-13-1-5v-14l3-12 5-8 8-5z" fill="#F6B614"/>
<path d="m845 231h3l1 162 5 14 1 3h-40l6-14 1-5v-119l-2-13-5-12 1-3z" fill="#F6B614"/>
<path d="m1268 299h18l13 5 9 7 7 7 4 6v2l-17 8h-3l-6-11-9-10-6-4-3-1h-11l-8 4-5 7-3 9-1 5v15l3 14 6 12 11 12 10 4 4 1h13l9-4 8-6 6-7 2-5h5l1 2-5 12-7 10-5 5-7 6-12 5-5 1h-16l-12-4-11-7-7-7-8-14-4-15v-18l4-14 7-12 9-10 12-7z" fill="#F6B614"/>
<path d="m1530 299h12l12 3 12 6v4l-7 12h-2l-6-10-7-6-7-2-10 1-5 3-2 5 1 7 5 5 14 6 17 8 10 8 5 8 2 8v16l-4 11-4 6-8 7-10 4-3 1h-21l-8-3-10-6-8-10-2-6 19-10 3 1v11l4 9 5 4 5 2h7l9-3 6-7 2-10-2-9-5-6-14-8-16-7-9-6-5-6-3-7v-13l5-10 7-6 10-4z" fill="#F6B614"/>
<path d="m976 299h41l-2 5-4 11v80l5 12 1 3h-40l2-5 4-11v-78l-4-11z" fill="#F6B614"/>
<path d="m1051 512h3v29h12l1 1v5h-13l1 68 5 10 6 8h-24l-6-7-3-10v-69h-13v-5l1-1h11l-3-11-2-7 15-7z" fill="#F6B614"/>
<path d="m972 541h9l13 4 7 4-2 5-5 8-3-3-4-6v-2l-5-2-2-1h-12l-5 5v6l4 5 21 9 9 6 7 8 3 10v11l-3 8-5 8-8 6-13 3-14-1-10-5-5-4-6-9 1-3 14-7h2l2 13 3 5 6 3h10l6-3 4-7v-10l-4-7-10-6-19-9-6-5-4-7-1-8 2-8 6-8 8-4z" fill="#F6B614"/>
<path d="m896 541h34l-5 12-1 5v58l4 13 2 4h-34l5-11 1-5v-59l-4-13z" fill="#F6B614"/>
<path d="m920 305h4v98l-7-2-8-7-8-14-4-16v-21l4-16 6-11 6-7z" fill="#F6B614"/>
<path d="m660 678h11l-5 10-10 13-9 8-7 3-8-1-6-5-2-5 2-9 4-5 9-5 12-3z" fill="#F6B614"/>
<path d="m1456 241h22l-2 5-13 18-7 10h-11l1-6z" fill="#F6B614"/>
<path d="m992 254h10l6 5 2 4v7l-4 6-3 3-9 1-6-3-4-6v-9l3-5z" fill="#F6B614"/>
<path d="m910 504h6l6 4 2 5-1 7-5 5-7 1-6-4-2-2-1-7 3-6z" fill="#F6B614"/>
</svg>